<?xml version="1.0" standalone="no"?><!DOCTYPE svg PUBLIC "-//W3C//DTD SVG 1.1//EN" "http://www.w3.org/Graphics/SVG/1.1/DTD/svg11.dtd"><svg t="1619962522434" class="icon" viewBox="0 0 1027 1024" version="1.1" xmlns="http://www.w3.org/2000/svg" p-id="6139" xmlns:xlink="http://www.w3.org/1999/xlink" width="280.8203125" height="280"><defs><style type="text/css"></style></defs><path d="M720.128 284.512c24.128 34.368 112.64 1.472 125.088 76.8 8.032 49.728 0 73.888 31.456 70.944 28.608-2.208 78.272-96.544-10.24-163.84-96.544-72.416-165.312-12.448-146.272 16.096z m-23.392-157.984c10.24 36.576 87.712 24.864 148.416 37.312 29.984 5.856 84.832 42.432 110.432 131.648 25.664 89.248-32.096 171.168 29.984 178.464 51.2 6.592 46.88-160.928 29.984-215.776-17.568-55.584-71.68-144.096-180.672-174.08-108.896-29.984-149.152 4.384-138.176 42.432zM236.64 705.184c12.448 76.736 99.488 126.464 193.088 111.168 91.424-14.624 153.6-86.304 141.888-160.096-12.448-74.016-94.368-123.744-185.792-112.064-93.632 11.712-161.632 84.128-149.216 160.992z m49.024 9.408c-5.12-29.248 16.832-58.432 50.464-65.088 32.928-6.592 64.352 11.712 70.208 40.896 5.12 29.984-16.832 58.592-50.464 65.184-32.928 7.328-64.352-11.712-70.208-40.96z m220.16-334.24c-15.36-16.096 43.872-95.808-10.976-141.152-62.176-51.936-207.008 15.36-331.328 127.264C38.432 478.368-14.208 606.368 8.448 719.008c21.952 113.376 229.664 253.088 520.032 228.192 290.368-24.928 400.832-250.208 387.008-338.656-13.984-87.776-98.816-94.432-120.672-98.752-22.752-4.384-66.56-1.472-33.728-43.872 33.728-43.168 17.568-98.016-25.6-116.288-42.432-17.568-116.288-2.208-150.688 13.888-46.08 21.952-79.008 16.832-79.008 16.832z m-386.208 307.2c-12.448-110.432 114.112-224.544 285.248-247.232 171.168-21.952 335.008 57.056 346.688 167.584 12.448 110.368-129.472 236.192-300.608 258.112-170.432 22.016-318.912-68.032-331.328-178.464z" p-id="6140"></path></svg>